{
  "accessors": [
    {
      "bufferView": 2,
      "componentType": 5126,
      "count": 65532,
      "max": [
        7.335663795471191,
        1.7217990159988403,
        9.805631637573242
      ],
      "min": [
        -7.325857162475586,
        -1.1673272848129272,
        -9.797432899475098
      ],
      "type": "VEC3"
    },
    {
      "bufferView": 2,
      "byteOffset": 786384,
      "componentType": 5126,
      "count": 65532,
      "max": [
        0.9999006390571594,
        1.0,
        0.9999846816062927
      ],
      "min": [
        -0.9999988675117493,
        -0.9999139904975891,
        -0.9999721050262451
      ],
      "type": "VEC3"
    },
    {
      "bufferView": 1,
      "componentType": 5126,
      "count": 65532,
      "max": [
        0.9991233944892883,
        0.9976012110710144
      ],
      "min": [
        0.0009062987519428134,
        0.02257571555674076
      ],
      "type": "VEC2"
    },
    {
      "bufferView": 0,
      "componentType": 5125,
      "count": 318240,
      "type": "SCALAR"
    },
    {
      "bufferView": 2,
      "byteOffset": 1572768,
      "componentType": 5126,
      "count": 65532,
      "max": [
        7.342075347900391,
        1.7868376970291138,
        9.757844924926758
      ],
      "min": [
        -7.342075347900391,
        -1.4545611143112183,
        -9.805631637573242
      ],
      "type": "VEC3"
    },
    {
      "bufferView": 2,
      "byteOffset": 2359152,
      "componentType": 5126,
      "count": 65532,
      "max": [
        0.9999810457229614,
        1.0,
        0.9999959468841553
      ],
      "min": [
        -0.9999927282333374,
        -1.0,
        -0.9999921917915344
      ],
      "type": "VEC3"
    },
    {
      "bufferView": 1,
      "byteOffset": 524256,
      "componentType": 5126,
      "count": 65532,
      "max": [
        0.9985512495040894,
        0.9897816181182861
      ],
      "min": [
        0.00021471641957759857,
        0.0006014704704284668
      ],
      "type": "VEC2"
    },
    {
      "bufferView": 0,
      "byteOffset": 1272960,
      "componentType": 5125,
      "count": 293394,
      "type": "SCALAR"
    },
    {
      "bufferView": 2,
      "byteOffset": 3145536,
      "componentType": 5126,
      "count": 65532,
      "max": [
        6.83135986328125,
        1.5058561563491821,
        9.80494499206543
      ],
      "min": [
        -5.6447954177856445,
        -1.7981988191604614,
        -6.4036688804626465
      ],
      "type": "VEC3"
    },
    {
      "bufferView": 2,
      "byteOffset": 3931920,
      "componentType": 5126,
      "count": 65532,
      "max": [
        0.9976571202278137,
        1.0,
        0.9999868869781494
      ],
      "min": [
        -0.9999498724937439,
        -0.9387551546096802,
        -0.9999974966049194
      ],
      "type": "VEC3"
    },
    {
      "bufferView": 1,
      "byteOffset": 1048512,
      "componentType": 5126,
      "count": 65532,
      "max": [
        0.9981130957603455,
        0.9973979592323303
      ],
      "min": [
        0.0015713907778263092,
        0.04868434742093086
      ],
      "type": "VEC2"
    },
    {
      "bufferView": 0,
      "byteOffset": 2446536,
      "componentType": 5125,
      "count": 334449,
      "type": "SCALAR"
    },
    {
      "bufferView": 2,
      "byteOffset": 4718304,
      "componentType": 5126,
      "count": 65532,
      "max": [
        6.091710090637207,
        1.3251773118972778,
        6.786258697509766
      ],
      "min": [
        -7.314295768737793,
        -1.797993540763855,
        -7.867821216583252
      ],
      "type": "VEC3"
    },
    {
      "bufferView": 2,
      "byteOffset": 5504688,
      "componentType": 5126,
      "count": 65532,
      "max": [
        0.9999533891677856,
        1.0,
        0.999958336353302
      ],
      "min": [
        -0.9999997615814209,
        -0.9969465732574463,
        -0.9999992251396179
      ],
      "type": "VEC3"
    },
    {
      "bufferView": 1,
      "byteOffset": 1572768,
      "componentType": 5126,
      "count": 65532,
      "max": [
        0.9978764057159424,
        0.9976407289505005
      ],
      "min": [
        0.0002044886350631714,
        0.028499005362391472
      ],
      "type": "VEC2"
    },
    {
      "bufferView": 0,
      "byteOffset": 3784332,
      "componentType": 5125,
      "count": 327123,
      "type": "SCALAR"
    },
    {
      "bufferView": 2,
      "byteOffset": 6291072,
      "componentType": 5126,
      "count": 65532,
      "max": [
        7.342075347900391,
        1.7868376970291138,
        2.955587387084961
      ],
      "min": [
        -5.585559844970703,
        -1.5242997407913208,
        -9.805631637573242
      ],
      "type": "VEC3"
    },
    {
      "bufferView": 2,
      "byteOffset": 7077456,
      "componentType": 5126,
      "count": 65532,
      "max": [
        0.9999627470970154,
        1.0,
        0.9999988675117493
      ],
      "min": [
        -0.9999989867210388,
        -0.9996528625488281,
        -0.9993022680282593
      ],
      "type": "VEC3"
    },
    {
      "bufferView": 1,
      "byteOffset": 2097024,
      "componentType": 5126,
      "count": 65532,
      "max": [
        0.9976484775543213,
        0.9975813031196594
      ],
      "min": [
        0.00014415383338928223,
        0.029873279854655266
      ],
      "type": "VEC2"
    },
    {
      "bufferView": 0,
      "byteOffset": 5092824,
      "componentType": 5125,
      "count": 311505,
      "type": "SCALAR"
    },
    {
      "bufferView": 2,
      "byteOffset": 7863840,
      "componentType": 5126,
      "count": 14711,
      "max": [
        7.318670272827148,
        1.5478144884109497,
        8.992361068725586
      ],
      "min": [
        -7.3223557472229,
        -1.458224892616272,
        -6.692836284637451
      ],
      "type": "VEC3"
    },
    {
      "bufferView": 2,
      "byteOffset": 8040372,
      "componentType": 5126,
      "count": 14711,
      "max": [
        0.9998704791069031,
        1.0,
        0.999956488609314
      ],
      "min": [
        -0.9997462630271912,
        -0.9999998807907104,
        -0.9979115128517151
      ],
      "type": "VEC3"
    },
    {
      "bufferView": 1,
      "byteOffset": 2621280,
      "componentType": 5126,
      "count": 14711,
      "max": [
        0.9977034330368042,
        0.8679094910621643
      ],
      "min": [
        0.005497999954968691,
        0.026951175183057785
      ],
      "type": "VEC2"
    },
    {
      "bufferView": 0,
      "byteOffset": 6338844,
      "componentType": 5125,
      "count": 63051,
      "type": "SCALAR"
    }
  ],
  "asset": {
    "extras": {
      "author": "Peter Katz (https://sketchfab.com/peterkatz)",
      "license": "CC-BY-NC-SA-4.0 (http://creativecommons.org/licenses/by-nc-sa/4.0/)",
      "source": "https://sketchfab.com/3d-models/skate-pool-in-downtown-durham-nc-17cf3fb484fd431eb1431103f85bd012",
      "title": "Skate Pool in Downtown Durham, NC"
    },
    "generator": "Sketchfab-12.65.0",
    "version": "2.0"
  },
  "bufferViews": [
    {
      "buffer": 0,
      "byteLength": 6591048,
      "name": "floatBufferViews",
      "target": 34963
    },
    {
      "buffer": 0,
      "byteLength": 2738968,
      "byteOffset": 6591048,
      "byteStride": 8,
      "name": "floatBufferViews",
      "target": 34962
    },
    {
      "buffer": 0,
      "byteLength": 8216904,
      "byteOffset": 9330016,
      "byteStride": 12,
      "name": "floatBufferViews",
      "target": 34962
    }
  ],
  "buffers": [
    {
      "byteLength": 17546920,
      "uri": "scene.bin"
    }
  ],
  "extensionsUsed": [
    "KHR_materials_unlit"
  ],
  "images": [
    {
      "uri": "textures/material_0_baseColor.jpeg"
    }
  ],
  "materials": [
    {
      "extensions": {
        "KHR_materials_unlit": {}
      },
      "name": "material_0",
      "pbrMetallicRoughness": {
        "baseColorTexture": {
          "index": 0
        },
        "metallicFactor": 0.0
      }
    }
  ],
  "meshes": [
    {
      "name": "Object_0",
      "primitives": [
        {
          "attributes": {
            "NORMAL": 1,
            "POSITION": 0,
            "TEXCOORD_0": 2
          },
          "indices": 3,
          "material": 0,
          "mode": 4
        }
      ]
    },
    {
      "name": "Object_1",
      "primitives": [
        {
          "attributes": {
            "NORMAL": 5,
            "POSITION": 4,
            "TEXCOORD_0": 6
          },
          "indices": 7,
          "material": 0,
          "mode": 4
        }
      ]
    },
    {
      "name": "Object_2",
      "primitives": [
        {
          "attributes": {
            "NORMAL": 9,
            "POSITION": 8,
            "TEXCOORD_0": 10
          },
          "indices": 11,
          "material": 0,
          "mode": 4
        }
      ]
    },
    {
      "name": "Object_3",
      "primitives": [
        {
          "attributes": {
            "NORMAL": 13,
            "POSITION": 12,
            "TEXCOORD_0": 14
          },
          "indices": 15,
          "material": 0,
          "mode": 4
        }
      ]
    },
    {
      "name": "Object_4",
      "primitives": [
        {
          "attributes": {
            "NORMAL": 17,
            "POSITION": 16,
            "TEXCOORD_0": 18
          },
          "indices": 19,
          "material": 0,
          "mode": 4
        }
      ]
    },
    {
      "name": "Object_5",
      "primitives": [
        {
          "attributes": {
            "NORMAL": 21,
            "POSITION": 20,
            "TEXCOORD_0": 22
          },
          "indices": 23,
          "material": 0,
          "mode": 4
        }
      ]
    }
  ],
  "nodes": [
    {
      "children": [
        1
      ],
      "matrix": [
        1.0,
        0.0,
        0.0,
        0.0,
        0.0,
        2.220446049250313e-16,
        -1.0,
        0.0,
        0.0,
        1.0,
        2.220446049250313e-16,
        0.0,
        0.0,
        0.0,
        0.0,
        1.0
      ],
      "name": "Sketchfab_model"
    },
    {
      "children": [
        2
      ],
      "name": "root"
    },
    {
      "children": [
        3
      ],
      "matrix": [
        1.0,
        0.0,
        0.0,
        0.0,
        0.0,
        2.220446049250313e-16,
        1.0,
        0.0,
        0.0,
        -1.0,
        2.220446049250313e-16,
        0.0,
        0.0,
        0.0,
        0.0,
        1.0
      ],
      "name": "GLTF_SceneRootNode"
    },
    {
      "children": [
        4,
        5,
        6,
        7,
        8,
        9
      ],
      "name": "_0"
    },
    {
      "mesh": 0,
      "name": "Object_4"
    },
    {
      "mesh": 1,
      "name": "Object_5"
    },
    {
      "mesh": 2,
      "name": "Object_6"
    },
    {
      "mesh": 3,
      "name": "Object_7"
    },
    {
      "mesh": 4,
      "name": "Object_8"
    },
    {
      "mesh": 5,
      "name": "Object_9"
    }
  ],
  "samplers": [
    {
      "magFilter": 9729,
      "minFilter": 9987,
      "wrapS": 10497,
      "wrapT": 10497
    }
  ],
  "scene": 0,
  "scenes": [
    {
      "name": "Sketchfab_Scene",
      "nodes": [
        0
      ]
    }
  ],
  "textures": [
    {
      "sampler": 0,
      "source": 0
    }
  ]
}
